{"accessors":[{"bufferView":2,"componentType":5126,"count":228,"max":[1.5863605737686157,7.000001430511475,-0.04019150137901306],"min":[-1.586361289024353,-0.008485286496579647,-1.0995992422103882],"type":"VEC3"},{"bufferView":2,"byteOffset":2736,"componentType":5126,"count":228,"max":[1,0.9900546669960022,0.9911516308784485],"min":[-1,-0.9939607381820679,-0.9899495840072632],"type":"VEC3"},{"bufferView":1,"componentType":5126,"count":228,"max":[0.9897283911705017,0.9863727688789368],"min":[0.010447178035974503,0.00738915428519249],"type":"VEC2"},{"bufferView":0,"componentType":5125,"count":540,"type":"SCALAR"},{"bufferView":2,"byteOffset":5472,"componentType":5126,"count":228,"max":[1.5863609313964844,7.000001430511475,1.09959876537323],"min":[-1.5863609313964844,-0.008485286496579647,0.04019184410572052],"type":"VEC3"},{"bufferView":2,"byteOffset":8208,"componentType":5126,"count":228,"max":[1,0.9900546669960022,0.9899495840072632],"min":[-1,-0.9939606785774231,-0.9911516904830933],"type":"VEC3"},{"bufferView":1,"byteOffset":1824,"componentType":5126,"count":228,"max":[0.9897283911705017,0.9863727688789368],"min":[0.010447178035974503,0.00738915428519249],"type":"VEC2"},{"bufferView":0,"byteOffset":2160,"componentType":5125,"count":540,"type":"SCALAR"}],"asset":{"extras":{"author":"Goitya (https://sketchfab.com/Goitya)","license":"SKETCHFAB Standard (https://sketchfab.com/licenses)","source":"https://sketchfab.com/3d-models/pokemon-wet-floor-sign-d6d59fa4d4f749b782348aa1aa905b38","title":"Pokemon Wet Floor Sign"},"generator":"Sketchfab-16.14.0","version":"2.0"},"bufferViews":[{"buffer":0,"byteLength":4320,"name":"floatBufferViews","target":34963},{"buffer":0,"byteLength":3648,"byteOffset":4320,"byteStride":8,"name":"floatBufferViews","target":34962},{"buffer":0,"byteLength":10944,"byteOffset":7968,"byteStride":12,"name":"floatBufferViews","target":34962}],"buffers":[{"byteLength":18912,"uri":"data:application/octet-stream;base64,"}],"extensionsRequired":["KHR_materials_pbrSpecularGlossiness"],"extensionsUsed":["KHR_materials_pbrSpecularGlossiness","KHR_materials_emissive_strength"],"images":[{"uri":"data:application/octet-stream;base64,"}],"materials":[{"doubleSided":true,"emissiveFactor":[1,1,1],"emissiveTexture":{"index":0},"extensions":{"KHR_materials_emissive_strength":{"emissiveStrength":1.4},"KHR_materials_pbrSpecularGlossiness":{"diffuseFactor":[0,0,0,1],"diffuseTexture":{"index":0},"glossinessFactor":0.8,"specularFactor":[0,0,0]}},"name":"Material"}],"meshes":[{"name":"Object_0","primitives":[{"attributes":{"NORMAL":1,"POSITION":0,"TEXCOORD_0":2},"indices":3,"material":0,"mode":4}]},{"name":"Object_1","primitives":[{"attributes":{"NORMAL":5,"POSITION":4,"TEXCOORD_0":6},"indices":7,"material":0,"mode":4}]}],"nodes":[{"children":[1],"matrix":[1,0,0,0,0,2.220446049250313e-16,-1,0,0,1,2.220446049250313e-16,0,0,0,0,1],"name":"Sketchfab_model"},{"children":[2],"name":"root"},{"children":[3,5],"matrix":[1,0,0,0,0,2.220446049250313e-16,1,0,0,-1,2.220446049250313e-16,0,0,0,0,1],"name":"GLTF_SceneRootNode"},{"children":[4],"name":"BackSign_0"},{"mesh":0,"name":"Object_4"},{"children":[6],"name":"FrontSign_1"},{"mesh":1,"name":"Object_6"}],"samplers":[{"magFilter":9729,"minFilter":9987,"wrapS":10497,"wrapT":10497}],"scene":0,"scenes":[{"name":"Sketchfab_Scene","nodes":[0]}],"textures":[{"sampler":0,"source":0}]}